<?xml version="1.0" encoding="utf-8"?>
<!-- Generator: Adobe Illustrator 26.2.1, SVG Export Plug-In . SVG Version: 6.00 Build 0)  -->
<svg version="1.1" id="Layer_1" xmlns="http://www.w3.org/2000/svg" xmlns:xlink="http://www.w3.org/1999/xlink" x="0px" y="0px"
	 viewBox="0 0 916.96 234.23" style="enable-background:new 0 0 916.96 234.23;" xml:space="preserve">
<style type="text/css">
	.st0{fill:#00A677;}
	.st1{fill:#424143;}
</style>
<g>
	<g>
		<path class="st0" d="M72.68,103.9L72.68,103.9c-3.37,3.37-8.83,3.37-12.19,0L5.11,48.53c-3.37-3.37-3.37-8.83,0-12.19l0,0
			c3.37-3.37,8.83-3.37,12.19,0L72.68,91.7C76.05,95.07,76.05,100.53,72.68,103.9z"/>
		<path class="st0" d="M72.69,130.32L72.69,130.32c-3.37-3.37-8.83-3.37-12.19,0L5.12,185.69c-3.37,3.37-3.37,8.83,0,12.19l0,0
			c3.37,3.37,8.83,3.37,12.19,0l55.37-55.37C76.06,139.15,76.06,133.69,72.69,130.32z"/>
		<path class="st0" d="M97.17,130.33L97.17,130.33c3.37-3.37,8.83-3.37,12.19,0l85.36,85.36c3.37,3.37,3.37,8.83,0,12.19h0
			c-3.37,3.37-8.83,3.37-12.19,0l-85.36-85.36C93.8,139.16,93.8,133.7,97.17,130.33z"/>
		<path class="st0" d="M117.57,117.12L117.57,117.12c0-4.76,3.86-8.62,8.62-8.62h51.74c4.76,0,8.62,3.86,8.62,8.62v0
			c0,4.76-3.86,8.62-8.62,8.62h-51.74C121.43,125.74,117.57,121.88,117.57,117.12z"/>
		<path class="st0" d="M97.17,103.9L97.17,103.9c-3.37-3.37-3.37-8.83,0-12.19l85.36-85.36c3.37-3.37,8.83-3.37,12.19,0l0,0
			c3.37,3.37,3.37,8.83,0,12.19l-85.36,85.36C105.99,107.27,100.53,107.27,97.17,103.9z"/>
	</g>
	<g>
		<path class="st1" d="M432.61,32.52c-1.62-1.62-3.86-2.62-6.33-2.62c-4.94,0-8.95,4.01-8.95,8.95v45.56
			c-3.34-4.32-7.32-7.76-11.93-10.32c-6.71-3.73-14.24-5.6-22.56-5.6c-9.57,0-18.12,2.12-25.64,6.34
			c-7.52,4.23-13.45,10.1-17.8,17.62c-4.35,7.52-6.53,16.31-6.53,26.38s2.18,18.9,6.53,26.48c4.35,7.58,10.28,13.48,17.8,17.71
			c7.52,4.22,16.07,6.34,25.64,6.34c8.57,0,16.22-1.9,22.93-5.69c4.82-2.72,8.92-6.4,12.3-11.02v7.01c0,4.74,3.84,8.58,8.58,8.58
			s8.58-3.84,8.58-8.58V38.85C435.23,36.38,434.23,34.14,432.61,32.52z M413.13,137.19c-2.92,5.29-6.89,9.36-11.93,12.22
			c-5.03,2.86-10.66,4.28-16.87,4.28c-6.34,0-12-1.42-16.97-4.28c-4.97-2.86-8.95-6.93-11.93-12.22c-2.98-5.28-4.47-11.4-4.47-18.36
			c0-7.08,1.49-13.2,4.47-18.36c2.98-5.16,6.96-9.17,11.93-12.03c4.97-2.86,10.63-4.29,16.97-4.29c6.21,0,11.84,1.43,16.87,4.29
			c5.04,2.86,9.01,6.87,11.93,12.03c2.92,5.16,4.39,11.28,4.39,18.36C417.52,125.79,416.05,131.91,413.13,137.19z"/>
	</g>
	<path class="st1" d="M494.98,169.36c-8.45,0-15.88-1.55-22.28-4.66c-6.4-3.11-11.37-7.86-14.92-14.26
		c-3.54-6.4-5.31-14.45-5.31-24.14l0-47.91c0-4.94,4.01-8.95,8.95-8.95l0,0c4.94,0,8.95,4.01,8.95,8.95l0,45.86
		c0,9.69,2.33,16.97,6.99,21.81c4.66,4.85,11.22,7.27,19.67,7.27c6.21,0,11.62-1.27,16.22-3.82c4.6-2.55,8.14-6.27,10.63-11.19
		c2.49-4.91,3.73-10.84,3.73-17.8V78.38c0-4.94,4.01-8.95,8.95-8.95h0c4.94,0,8.95,4.01,8.95,8.95v81.38c0,4.68-3.8,8.48-8.48,8.48
		l0,0c-4.68,0-8.48-3.8-8.48-8.48v-18.18l2.8,7.08c-3.23,6.59-8.08,11.68-14.54,15.29C510.33,167.56,503.06,169.36,494.98,169.36z"
		/>
	<g>
		<path class="st1" d="M658.57,92.45c-4.35-7.52-10.25-13.39-17.71-17.62c-7.46-4.22-16.03-6.34-25.73-6.34
			c-8.2,0-15.69,1.87-22.46,5.6c-4.66,2.56-8.67,6-12.03,10.32V38.85c0-2.47-1-4.71-2.62-6.33s-3.86-2.62-6.33-2.62
			c-4.94,0-8.95,4.01-8.95,8.95v120.81c0,2.37,0.96,4.51,2.51,6.07c1.55,1.55,3.7,2.51,6.07,2.51c4.73,0,8.57-3.84,8.57-8.58v-7.03
			c3.39,4.63,7.53,8.31,12.4,11.04c6.78,3.79,14.39,5.69,22.84,5.69c9.7,0,18.27-2.12,25.73-6.34c7.46-4.23,13.36-10.13,17.71-17.71
			c4.35-7.58,6.53-16.41,6.53-26.48S662.92,99.97,658.57,92.45z M642.63,137.19c-2.92,5.29-6.9,9.36-11.93,12.22
			c-5.04,2.86-10.72,4.28-17.06,4.28c-6.22,0-11.84-1.42-16.87-4.28c-5.04-2.86-9.02-6.93-11.93-12.22
			c-2.93-5.28-4.39-11.4-4.39-18.36c0-7.08,1.46-13.2,4.39-18.36c2.91-5.16,6.89-9.17,11.93-12.03c5.03-2.86,10.65-4.29,16.87-4.29
			c6.34,0,12.02,1.43,17.06,4.29c5.03,2.86,9.01,6.87,11.93,12.03c2.92,5.16,4.38,11.28,4.38,18.36
			C647.01,125.79,645.55,131.91,642.63,137.19z"/>
	</g>
	<path class="st1" d="M735.1,69.62c8.08,0,15.19,1.56,21.35,4.66c6.15,3.11,10.97,7.83,14.45,14.17c3.48,6.34,5.22,14.36,5.22,24.05
		v47.91c0,4.94-4.01,8.95-8.95,8.95l0,0c-4.94,0-8.95-4.01-8.95-8.95v-45.86c0-9.57-2.33-16.78-6.99-21.63
		c-4.66-4.85-11.22-7.27-19.67-7.27c-6.34,0-11.87,1.24-16.59,3.73c-4.72,2.49-8.36,6.15-10.91,11c-2.55,4.85-3.82,10.88-3.82,18.08
		v41.95c0,4.94-4.01,8.95-8.95,8.95h0c-4.94,0-8.95-4.01-8.95-8.95V39.97c0-4.94,4.01-8.95,8.95-8.95h0c4.94,0,8.95,4.01,8.95,8.95
		l0,57.24l-3.54-7.08c3.23-6.46,8.2-11.5,14.91-15.1C718.32,71.42,726.15,69.62,735.1,69.62z"/>
	<g>
		<path class="st1" d="M868.21,78.37c-7.34-6.58-17.78-9.88-31.32-9.88c-7.84,0-15.33,1.09-22.47,3.27
			c-4.41,1.34-8.42,3.04-12.05,5.12c-3.65,2.09-4.96,6.72-2.92,10.4v0.01c2.07,3.72,6.75,4.99,10.49,2.95
			c2.37-1.29,4.95-2.42,7.74-3.38c5.6-1.93,11.31-2.89,17.15-2.89c8.83,0,15.45,2.08,19.86,6.24c4.41,4.17,6.62,10.04,6.62,17.62
			v3.54h-28.34c-9.82,0-17.62,1.31-23.4,3.92c-5.78,2.61-9.94,6.09-12.49,10.44c-2.55,4.35-3.82,9.2-3.82,14.54
			c0,5.59,1.49,10.6,4.47,15.01c2.99,4.41,7.24,7.86,12.77,10.35c5.53,2.48,11.97,3.73,19.3,3.73c9.07,0,16.59-1.71,22.56-5.13
			c4.18-2.4,7.47-5.38,9.88-8.97v4.49c0,2.34,0.95,4.47,2.48,6c1.54,1.54,3.66,2.49,6,2.49c4.69,0,8.49-3.8,8.49-8.49v-51.17
			C879.21,95.03,875.54,84.96,868.21,78.37z M850.4,151.08c-5.03,2.99-10.9,4.48-17.62,4.48c-6.83,0-12.18-1.46-16.03-4.38
			c-3.85-2.92-5.78-6.81-5.78-11.65c0-4.23,1.55-7.83,4.66-10.82c3.11-2.98,9.14-4.47,18.09-4.47h27.59v13.79
			C859.07,143.75,855.44,148.1,850.4,151.08z"/>
	</g>
	<path class="st1" d="M896.48,160.41l0-80.91c0-4.94,4.01-8.95,8.95-8.95l0,0c4.94,0,8.95,4.01,8.95,8.95l0,80.91
		c0,4.94-4.01,8.95-8.95,8.95l0,0C900.48,169.36,896.48,165.35,896.48,160.41z"/>
	<circle class="st0" cx="905.43" cy="39.88" r="8.95"/>
	<path class="st1" d="M309.29,91.24c-4.18-7.68-9.95-13.64-17.32-17.88c-7.37-4.25-15.86-6.37-25.47-6.37
		c-9.49,0-18.01,2.15-25.56,6.46c-7.56,4.31-13.49,10.27-17.8,17.89c-4.3,7.61-6.46,16.35-6.46,26.22c0,9.86,2.22,18.6,6.65,26.21
		c4.43,7.62,10.68,13.61,18.73,17.98c8.05,4.38,17.38,6.56,28,6.56c8.24,0,15.7-1.37,22.38-4.12c4.1-1.69,7.8-3.85,11.08-6.48
		c3.57-2.87,3.79-8.3,0.45-11.57c-2.79-2.74-7.22-2.72-10.4-0.43c-2.15,1.55-4.47,2.84-6.94,3.87c-4.81,2-10.14,3-16.01,3
		c-7.12,0-13.42-1.44-18.92-4.31c-5.49-2.87-9.77-6.9-12.82-12.08c-2.26-3.82-3.69-8.03-4.27-12.64h75.55
		c2.98,0,5.41-2.42,5.41-5.41c0-0.01,0-0.02,0-0.02C315.57,107.88,313.48,98.92,309.29,91.24z M234.57,110.63
		c0.52-4.55,1.8-8.7,3.84-12.46c2.74-5.06,6.55-8.99,11.42-11.8s10.43-4.21,16.67-4.21c6.37,0,11.95,1.4,16.76,4.21
		c4.81,2.81,8.58,6.72,11.33,11.71c2.08,3.79,3.34,7.97,3.77,12.55H234.57z"/>
</g>
</svg>
